<?xml version="1.0" encoding="UTF-8" standalone="no"?> <svg xmlns="http://www.w3.org/2000/svg" xmlns:xlink="http://www.w3.org/1999/xlink" viewBox="0 0 64 64"><defs><style>.cls-1{fill:url(#linear-gradient);}.cls-2{fill:url(#linear-gradient-2);}.cls-3{fill:url(#linear-gradient-3);}.cls-4{fill:url(#linear-gradient-4);}</style><linearGradient id="linear-gradient" x1="10.5" y1="20.72" x2="30.94" y2="20.72" gradientUnits="userSpaceOnUse"><stop offset="0" stop-color="#19dd33"/><stop offset="0.43" stop-color="#0fa922"/><stop offset="0.8" stop-color="#088215"/><stop offset="1" stop-color="#057310"/></linearGradient><linearGradient id="linear-gradient-2" x1="33.06" y1="20.72" x2="53.5" y2="20.72" xlink:href="#linear-gradient"/><linearGradient id="linear-gradient-3" y1="43.28" x2="30.94" y2="43.28" xlink:href="#linear-gradient"/><linearGradient id="linear-gradient-4" x1="33.06" y1="43.28" x2="53.5" y2="43.28" xlink:href="#linear-gradient"/></defs><g id="Layer_98" data-name="Layer 98"><path class="cls-1" d="M27.44,10.5H14A3.5,3.5,0,0,0,10.5,14V27.44a3.5,3.5,0,0,0,3.5,3.5H27.44a3.5,3.5,0,0,0,3.5-3.5V14A3.5,3.5,0,0,0,27.44,10.5Zm.5,16.94a.51.51,0,0,1-.5.5H14a.5.5,0,0,1-.5-.5V14a.5.5,0,0,1,.5-.5H27.44a.5.5,0,0,1,.5.5Z"/><path class="cls-2" d="M50,10.5H36.56a3.5,3.5,0,0,0-3.5,3.5V27.44a3.5,3.5,0,0,0,3.5,3.5H50a3.5,3.5,0,0,0,3.5-3.5V14A3.5,3.5,0,0,0,50,10.5Zm.5,16.94a.5.5,0,0,1-.5.5H36.56a.51.51,0,0,1-.5-.5V14a.5.5,0,0,1,.5-.5H50a.5.5,0,0,1,.5.5Z"/><path class="cls-3" d="M27.44,33.06H14a3.5,3.5,0,0,0-3.5,3.5V50A3.5,3.5,0,0,0,14,53.5H27.44a3.5,3.5,0,0,0,3.5-3.5V36.56A3.5,3.5,0,0,0,27.44,33.06ZM27.94,50a.5.5,0,0,1-.5.5H14a.5.5,0,0,1-.5-.5V36.56a.5.5,0,0,1,.5-.5H27.44a.51.51,0,0,1,.5.5Z"/><path class="cls-4" d="M50,33.06H36.56a3.5,3.5,0,0,0-3.5,3.5V50a3.5,3.5,0,0,0,3.5,3.5H50A3.5,3.5,0,0,0,53.5,50V36.56A3.5,3.5,0,0,0,50,33.06ZM50.5,50a.5.5,0,0,1-.5.5H36.56a.5.5,0,0,1-.5-.5V36.56a.51.51,0,0,1,.5-.5H50a.5.5,0,0,1,.5.5Z"/></g></svg>